HIERARCHY
ROOT Hips
{
    OFFSET 6.154644966125488 56.94024848937988 -12.193470001220703
    CHANNELS 6 Xposition Yposition Zposition Zrotation Xrotation Yrotation
    JOINT RightUpLeg
    {
        OFFSET -6.154644966125488 0.0 0.0
        CHANNELS 3 Zrotation Xrotation Yrotation
        JOINT RightLeg
        {
            OFFSET 0.0 -26.456573486328125 0.0
            CHANNELS 3 Zrotation Xrotation Yrotation
            JOINT RightFoot
            {
                OFFSET 0.0 -30.483675003051758 0.0
                CHANNELS 3 Zrotation Xrotation Yrotation
                End Site
                {
                    OFFSET 0.0 0.0 12.193470001220703
                }
            }
        }
    }
    JOINT LeftUpLeg
    {
        OFFSET 6.154644966125488 0.0 0.0
        CHANNELS 3 Zrotation Xrotation Yrotation
        JOINT LeftLeg
        {
            OFFSET 0.0 -26.456573486328125 0.0
            CHANNELS 3 Zrotation Xrotation Yrotation
            JOINT LeftFoot
            {
                OFFSET 0.0 -30.483675003051758 0.0
                CHANNELS 3 Zrotation Xrotation Yrotation
                End Site
                {
                    OFFSET 0.0 0.0 12.193470001220703
                }
            }
        }
    }
    JOINT Spine
    {
        OFFSET 0.0 19.46894645690918 0.0
        CHANNELS 3 Zrotation Xrotation Yrotation
        JOINT Spine3
        {
            OFFSET 0.0 19.795303344726562 0.0
            CHANNELS 3 Zrotation Xrotation Yrotation
            JOINT Neck
            {
                OFFSET 0.0 11.703651428222656 0.0
                CHANNELS 3 Zrotation Xrotation Yrotation
                End Site
                {
                    OFFSET 0.0 4.681460857391357 0.0
                }
            }
            JOINT LeftArm
            {
                OFFSET 9.203409194946289 0.0 0.0
                CHANNELS 3 Zrotation Xrotation Yrotation
                JOINT LeftForeArm
                {
                    OFFSET 24.427261352539062 0.0 0.0
                    CHANNELS 3 Zrotation Xrotation Yrotation
                    JOINT LeftHand
                    {
                        OFFSET 14.680553436279297 0.0 0.0
                        CHANNELS 3 Zrotation Xrotation Yrotation
                        End Site
                        {
                            OFFSET 5.872220993041992 0.0 0.0
                        }
                    }
                }
            }
            JOINT RightArm
            {
                OFFSET -9.203409194946289 0.0 0.0
                CHANNELS 3 Zrotation Xrotation Yrotation
                JOINT RightForeArm
                {
                    OFFSET -24.427261352539062 0.0 0.0
                    CHANNELS 3 Zrotation Xrotation Yrotation
                    JOINT RightHand
                    {
                        OFFSET -14.680553436279297 0.0 0.0
                        CHANNELS 3 Zrotation Xrotation Yrotation
                        End Site
                        {
                            OFFSET -5.872220993041992 0.0 0.0
                        }
                    }
                }
            }
        }
    }
}
MOTION
Frames: 12
Frame Time: 0.03333333333333333
-0.0 69.04319763183594 0.0 -1.0313559476724201 1.248880801671484 -49.2275377511269 -14.461135110542568 -3.2890508291556477 4.40501772605547 52.23989082263637 17.020315092780795 -31.025452968227114 3.1805546814635164e-15 3.1805546814635164e-15 1.590277340731758e-15 -13.206749410010275 -24.145593679193148 -32.84649242085763 30.42864954446536 54.35178518643842 11.281230328469809 -9.931289170612858e-32 -1.5902773407317584e-15 -7.156248033292914e-15 -3.179666626516463 3.281293865954736 0.4624945968282871 1.4591845657503893e-07 -2.2729263754580342e-07 10.193921591927463 14.95707566793913 14.896462704675114 -25.428816105691237 101.9371381168659 -42.20542911828988 -178.1252694992762 4.105033814020303e-06 -1.0601001465671057e-08 72.7644706104746 3.1805546814635164e-15 0.0 0.0 -129.32040007604056 -65.42480751791538 165.4895956232337 7.73808532052893e-07 -2.6744035362365724e-06 -154.02458472940395 0.0 0.0 0.0
-0.0 69.04319763183594 0.0 -0.8109522582995028 1.1485083114903485 -45.512246387205124 -13.922228622803496 -2.3502195043416765 3.9317962890870235 51.41876389589021 15.652074015386415 -27.871794273212263 0.0 0.0 7.553817368475852e-15 -12.768499341210953 -23.387945389845658 -30.478067610727194 31.329791259831232 50.92426995815986 9.405050715082611 -6.3611093629270335e-15 2.2069531490250793e-32 -3.975693351829396e-16 -3.0762065707009656 3.662433763055674 0.47835056078054033 -2.984613241843066e-08 1.6909966225126673e-07 9.869624697603033 16.214325029817164 13.390202216879073 -25.98447088551627 102.70047672990626 -42.097152292926594 -178.38134267970187 -3.6597953054941708e-06 7.421704175325375e-07 74.52046616543808 -7.951386703658796e-16 1.2722218725854067e-14 3.1805546814635168e-15 -120.9534060264621 -51.4236709896625 172.32472637191 2.234611009912634e-06 6.781365557213725e-06 -156.78078701102947 0.0 0.0 0.0
-0.0 69.04319763183594 0.0 -0.9473173976725514 1.274959716822556 -43.32678244347917 -13.407007307004138 -1.7734075142377776 3.3914746736619117 51.80967179826048 15.557481949541382 -27.210990658721762 -2.2069531490250793e-32 3.1805546814635164e-15 7.951386703658791e-16 -11.347282384921884 -22.74817622376619 -28.21598975720186 28.166392923423643 47.817115407425085 10.900512128087284 -3.1805546814635168e-15 -9.931289170612858e-32 3.578124016646457e-15 -2.6860382838733505 3.8911063317726473 0.5464626879737347 1.5648668569684753e-07 2.8084214252480886e-07 9.032890759896857 19.578525954007784 13.032635944346223 -46.0896637550651 103.1169113509455 -40.429746431497804 -178.81042756802321 -1.8100548367252236e-06 -2.506672864489501e-06 75.92706320120658 0.0 0.0 -3.1805546814635168e-15 -117.1433137842679 -3.0782762215945305 174.95949793679975 -6.215781645028009e-07 -4.032453768136883e-06 -161.23609413482023 0.0 -3.1805546814635168e-15 0.0
-0.0 69.04319763183594 0.0 -1.0256893299741798 1.303285271663478 -43.948029910855745 -13.8587574776165 -2.100651782356689 3.2932327062919873 52.04390797501442 16.17100575284251 -27.893960931220366 -6.3611093629270335e-15 -3.180554681463516e-15 -9.54166404439055e-15 -11.283517555442938 -23.03834433286067 -27.437017479063016 28.653846817939968 47.982610191982076 9.802204902821757 -8.414008880658114e-32 1.5902773407317584e-15 6.0629323615398285e-15 -2.6273387307526725 3.9254314717895333 0.49894042303710584 3.772066193566879e-07 7.995786252616728e-08 9.780757751161447 20.1290633671713 12.894443564659145 -48.24316190832073 102.6671692241148 -40.523702404845174 -178.70525953219155 5.253103702581938e-06 4.5518068988784e-07 75.13615104246689 -1.5902773407317584e-15 0.0 0.0 -117.26569128841425 -2.679256546649335 174.9319896184297 2.2007627058439462e-06 3.0831796912547287e-06 -161.23481639572648 -1.5448672043175555e-31 2.7829853462805768e-15 6.361109362927033e-15
-0.0 69.04319763183594 0.0 -1.5219576084898603 1.490881601010829 -39.571993831317954 -11.900247396658163 -1.0583924325985308 1.961886740420122 47.36942728644652 16.21866476883023 -24.02159801682434 0.0 0.0 -3.1805546814635168e-15 -11.446019172848121 -22.768499674726105 -23.449756311578074 29.766404699246635 44.534074011241366 7.257469481135825 3.862168010793889e-32 -1.5902773407317584e-15 2.782985346280577e-15 -0.7398605953685398 4.9476159794999655 0.4932942940289606 -1.9967494237897108e-07 -2.3366371706764597e-08 7.987982037972896 21.955342457337224 11.717015653168703 -64.68119315583641 97.5548152725274 -25.947913124012643 -179.81564743462036 3.9901886465668514e-06 1.194859010674904e-06 72.74894451908922 -3.578124016646457e-15 9.931289170612858e-32 -3.1805546814635168e-15 -110.72062149580488 66.76666656174918 169.04440762526013 2.1296473445945825e-06 -3.1172253716568747e-06 -121.29993978034227 -2.648343778830095e-31 -4.770832022195275e-15 -6.3611093629270335e-15
-0.0 69.04319763183594 0.0 -3.2452082290851263 2.2633260465064438 -36.49413544705086 -4.653795803585438 1.1060252303294316 1.3126958140595872 33.11037652699647 16.63981971684108 -22.932230395396097 3.1805546814635168e-15 3.310429723537619e-32 1.1927080055488188e-15 -6.56611877745403 -23.05385881333179 -23.390279525489927 20.17980191066416 44.4845058833009 14.203741291230225 -1.1034765745125397e-32 -7.951386703658791e-16 -1.5902773407317582e-15 1.4862980023248544 5.827078412105586 0.48348233533216095 -6.86421899897516e-08 -3.009719375453552e-08 5.829079306663343 23.33337328881307 10.167770942987143 -75.07840171225892 93.69561319640734 -11.994351628480743 178.6233270220006 1.5261201401262983e-07 2.209273671982029e-06 67.47377089008333 -7.156248033292912e-15 0.0 0.0 -112.56105735482944 72.75858569686149 150.2529359807185 -2.1002556355327817e-06 -2.1029512859709393e-06 -74.95986144274133 3.1805546814635176e-15 4.4139062980501586e-32 1.5902773407317588e-15
-0.0 69.04319763183594 0.0 -3.775829662903984 2.0226836264847146 -31.347714005491945 -1.0155625682530378 -0.6460417287007515 1.9225760818327653 14.481445048877795 19.733018124761493 -16.672189747698766 -1.5902773407317582e-15 -3.1805546814635164e-15 -7.951386703658792e-16 -0.9970357129660297 -19.20297570240899 -16.39145647418774 12.667489207252784 37.57075338804649 14.724217462732026 -1.3793457181406746e-33 7.951386703658792e-16 1.987846675914698e-16 3.477246885098218 6.834532911172702 0.39806453885712695 -2.480565574465512e-07 2.598226455745463e-07 2.7303360044880782 22.304013471009455 8.827652698279108 -92.6077532545687 90.53661421075296 6.127791713798079 176.50381554884075 4.792036887310431e-06 -6.936304978716478e-07 62.66203843815042 -1.5902773407317584e-15 -4.4139062980501586e-32 3.1805546814635168e-15 -112.98559991093057 76.35869793188448 139.3346628769195 3.3086319591705975e-06 1.5453798732304084e-06 -70.20932421630391 1.5902773407317582e-15 -8.827812596100317e-32 -6.361109362927033e-15
-0.0 69.04319763183594 0.0 -4.0855032032245 2.1928933998798765 -26.45861012807482 5.249637728933516 -4.148216190329603 4.285439866195466 -3.78439017984177 23.015575965253504 -13.296884150834458 5.963540027744093e-16 9.939233379573487e-17 -1.242404172446686e-15 7.1200480489012605 -14.611238016398241 -10.363127141502213 3.54505258325476 29.819682125740716 14.674294884797996 -6.896728590703373e-33 -3.975693351829396e-16 -1.987846675914698e-15 5.375415679810095 6.995771288281084 0.22814983581645368 -3.151274719179434e-09 9.825573479501281e-08 -0.9243350760559619 24.141690472525895 7.9503664722837675 -96.68868823618631 89.4520509815999 16.254364273752167 174.79383254662332 1.2410342850086444e-06 5.874124648684725e-07 54.91303424517793 -3.975693351829396e-15 3.1805546814635168e-15 -3.1805546814635168e-15 -100.52872544310043 80.61804333925834 118.12998606797369 1.761678165592131e-06 1.0099264688124828e-06 -50.79362488116517 -4.770832022195275e-15 6.620859447075238e-32 -1.5902773407317584e-15
-0.0 69.04319763183594 0.0 -3.362498407967979 2.276037084701977 -21.609631330131293 6.740878411822012 -10.073048773652852 6.2718919414222345 -12.287181599788697 29.02663115071523 -9.092184409345261 1.5902773407317584e-15 -3.1805546814635164e-15 3.578124016646456e-15 14.613919469609163 -10.948278516394877 -4.2422663123887006 -4.561703045005796 25.01833639534788 10.918167179442861 -3.586298867165754e-32 1.5902773407317588e-15 2.584200678689108e-15 6.0530658446490175 6.282729061475868 0.07787634560158244 2.2619572378131736e-08 4.975754585784335e-07 -3.271975056861883 25.47154583001113 6.450590309069844 -97.95808758790656 90.24042108230334 23.82070336573895 173.62471821309768 3.95351031730262e-06 9.933868327899823e-07 51.598134375228916 -4.770832022195275e-15 1.3241718894150476e-31 -3.1805546814635168e-15 -91.62524526152545 82.77577131922924 108.36669491628204 1.326897853366804e-06 -5.168412870429092e-06 -41.71654338264355 1.5902773407317588e-15 6.46050169672277e-15 7.951386703658792e-16
-0.0 69.04319763183594 0.0 -3.1011472191783342 1.7153191065609494 -19.68651357650346 8.768211531839755 -12.292249481270304 5.988253064287641 -17.235173379420978 31.267665478920506 -6.313115601584716 0.0 0.0 7.951386703658792e-16 25.033481036679532 -11.536148853522727 -0.8469209742800587 -16.25344601526709 25.12348749621608 11.077181834871219 0.0 0.0 1.987846675914698e-16 5.121480394424055 6.828457835725136 0.1244394418139457 -2.6710130737331626e-08 -9.160313422472153e-08 -5.28826931070347 28.09428802320908 6.7715656353236255 -100.18660555865868 90.62078624531591 21.261249488373682 173.82876815132218 6.301822540043526e-06 1.7287823012447709e-06 48.609204073322246 3.1805546814635168e-15 0.0 0.0 -90.16837327779734 82.40212955250914 108.83297544441552 1.3631752187728123e-07 2.6941311437154135e-06 -41.31402280462333 5.963540027744094e-16 1.2414111463266072e-32 2.3854160110976376e-15
-0.0 69.04319763183594 0.0 -2.9461588907384573 1.2859486014632062 -19.212389407984904 9.29465014445657 -12.594180614072691 4.980340408125029 -18.494764045168456 30.92668329007283 -4.983791925067653 1.0483027457869126e-31 3.1805546814635176e-15 -3.776908684237927e-15 32.22961006777612 -11.447170984569729 1.606511489546048 -19.516007273998277 26.063813609595933 9.174199110316758 -1.5902773407317582e-15 -1.987846675914698e-16 1.789062008323228e-15 4.466957166852397 7.5009219314887 0.18185078126802 -2.09589916295574e-07 4.4934132239262963e-07 -5.852465084058843 30.270858498214995 7.335826380199938 -97.85754377243043 86.98178946019515 28.991219607463165 173.87533843459786 -1.5782145919034547e-06 -1.7761950205880952e-06 47.82744660745252 -7.95138670365879e-15 3.180554681463516e-15 2.2069531490250793e-31 -88.75284851297563 82.30182591699614 107.87467982352352 2.9410082784994664e-07 -2.64899039432703e-06 -39.89599093227382 3.975693351829397e-16 6.3611093629270335e-15 -1.3914926731402886e-15
-0.0 69.04319763183594 0.0 -2.823729823821229 1.2401850039407096 -19.37053574098104 9.229665105334654 -12.379131637845473 4.771654671262771 -18.162141868828023 30.6103224873662 -4.762921636806943 -1.5902773407317582e-15 -5.517382872562698e-33 3.9756933518293955e-16 32.05019578635754 -11.351618526741122 1.474914629485043 -19.52708793199362 25.96440007753001 9.235428912446492 2.758691436281349e-33 -1.5902773407317584e-15 1.987846675914698e-16 4.455539440190738 7.502052864628882 0.24229108022629423 -4.7182515458773625e-08 -9.560700164115849e-08 -5.732494710363957 29.97014228076996 7.441871071454258 -97.53082975176012 86.64784661869479 30.388749760902908 173.80524432965095 -7.597359752758624e-07 9.948394612348393e-07 47.44267199223658 -2.3854160110976376e-15 3.1805546814635168e-15 -1.5902773407317584e-15 -87.53850723167197 82.35857461766297 106.77405910924556 5.5971290750633215e-06 5.6707221298048896e-06 -39.83151695430747 8.94531004161614e-16 1.2414111463266072e-32 1.590277340731758e-15
